# xmcd
#
# Track frame offsets: 
#        180
#        15338
#        32129
#        53804
#        68941
#        85561
#        104713
#        126160
#        146774
#        162258
#        186745
#        202788
#        218820
#        230607
#        243677
#
# Disc length: 3443 seconds
#
# Revision: 0
# Processed by: cddbd v1.5.2PL0 Copyright (c) Steve Scherf et al.
# Submitted via: ExactAudioCopy v0.99pb5
#
DISCID=d90d710f
DTITLE=조용필 - 조용필 베스트 CD6
DYEAR=2011
DGENRE=K_Pop
TTITLE0=상처
TTITLE1=내 청춘의 빈잔
TTITLE2=내 마음 당신 곁으로
TTITLE3=내 가슴에 내리는 비
TTITLE4=들꽃
TTITLE5=사랑하기 때문에
TTITLE6=미지의 세계
TTITLE7=아시아의 불꽃
TTITLE8=여행을 떠나요
TTITLE9=킬리자만자로의 표범
TTITLE10=바람이 전하는 말
TTITLE11=그 겨울의 찻집
TTITLE12=벌써 잊었나
TTITLE13=사랑의 만가
TTITLE14=얄미운 님아
EXTD=
EXTT0=
EXTT1=
EXTT2=
EXTT3=
EXTT4=
EXTT5=
EXTT6=
EXTT7=
EXTT8=
EXTT9=
EXTT10=
EXTT11=
EXTT12=
EXTT13=
EXTT14=
PLAYORDER=
